<svg width="21" height="21" viewBox="0 0 21 21" fill="none" xmlns="http://www.w3.org/2000/svg">
<path d="M7.00008 2.00024H14.0001C16.6667 2.00024 18.8334 4.16691 18.8334 6.83358V13.8336C18.8334 15.1155 18.3242 16.3448 17.4178 17.2513C16.5113 18.1577 15.282 18.6669 14.0001 18.6669H7.00008C4.33342 18.6669 2.16675 16.5002 2.16675 13.8336V6.83358C2.16675 5.5517 2.67597 4.32232 3.5824 3.41589C4.48882 2.50947 5.7182 2.00024 7.00008 2.00024ZM6.83342 3.66691C6.03777 3.66691 5.2747 3.98298 4.71209 4.54559C4.14949 5.1082 3.83341 5.87126 3.83341 6.66691V14.0002C3.83341 15.6586 5.17508 17.0002 6.83342 17.0002H14.1667C14.9624 17.0002 15.7255 16.6842 16.2881 16.1216C16.8507 15.559 17.1667 14.7959 17.1667 14.0002V6.66691C17.1667 5.00858 15.8251 3.66691 14.1667 3.66691H6.83342ZM14.8751 4.91691C15.1513 4.91691 15.4163 5.02666 15.6117 5.22201C15.807 5.41736 15.9167 5.68231 15.9167 5.95858C15.9167 6.23484 15.807 6.4998 15.6117 6.69515C15.4163 6.8905 15.1513 7.00024 14.8751 7.00024C14.5988 7.00024 14.3339 6.8905 14.1385 6.69515C13.9432 6.4998 13.8334 6.23484 13.8334 5.95858C13.8334 5.68231 13.9432 5.41736 14.1385 5.22201C14.3339 5.02666 14.5988 4.91691 14.8751 4.91691ZM10.5001 6.16691C11.6052 6.16691 12.665 6.6059 13.4464 7.3873C14.2278 8.1687 14.6667 9.22851 14.6667 10.3336C14.6667 11.4386 14.2278 12.4985 13.4464 13.2799C12.665 14.0613 11.6052 14.5002 10.5001 14.5002C9.39501 14.5002 8.33521 14.0613 7.5538 13.2799C6.7724 12.4985 6.33342 11.4386 6.33342 10.3336C6.33342 9.22851 6.7724 8.1687 7.5538 7.3873C8.33521 6.6059 9.39501 6.16691 10.5001 6.16691ZM10.5001 7.83358C9.83704 7.83358 9.20116 8.09697 8.73231 8.56581C8.26347 9.03465 8.00008 9.67054 8.00008 10.3336C8.00008 10.9966 8.26347 11.6325 8.73231 12.1013C9.20116 12.5702 9.83704 12.8336 10.5001 12.8336C11.1631 12.8336 11.799 12.5702 12.2678 12.1013C12.7367 11.6325 13.0001 10.9966 13.0001 10.3336C13.0001 9.67054 12.7367 9.03465 12.2678 8.56581C11.799 8.09697 11.1631 7.83358 10.5001 7.83358Z" fill="#9ED0E0"/>
</svg>
