<svg width="33" height="32" viewBox="0 0 33 32" fill="none" xmlns="http://www.w3.org/2000/svg">
<path d="M10.9001 2.66699H22.1001C26.3668 2.66699 29.8334 6.13366 29.8334 10.4003V21.6003C29.8334 23.6513 29.0187 25.6183 27.5684 27.0686C26.1181 28.5189 24.1511 29.3337 22.1001 29.3337H10.9001C6.63341 29.3337 3.16675 25.867 3.16675 21.6003V10.4003C3.16675 8.34932 3.98151 6.38231 5.43179 4.93203C6.88207 3.48175 8.84907 2.66699 10.9001 2.66699ZM10.6334 5.33366C9.36038 5.33366 8.13948 5.83937 7.2393 6.73955C6.33913 7.63972 5.83341 8.86062 5.83341 10.1337V21.867C5.83341 24.5203 7.98008 26.667 10.6334 26.667H22.3667C23.6398 26.667 24.8607 26.1613 25.7609 25.2611C26.661 24.3609 27.1667 23.14 27.1667 21.867V10.1337C27.1667 7.48033 25.0201 5.33366 22.3667 5.33366H10.6334ZM23.5001 7.33366C23.9421 7.33366 24.366 7.50925 24.6786 7.82181C24.9912 8.13438 25.1667 8.5583 25.1667 9.00033C25.1667 9.44235 24.9912 9.86628 24.6786 10.1788C24.366 10.4914 23.9421 10.667 23.5001 10.667C23.0581 10.667 22.6341 10.4914 22.3216 10.1788C22.009 9.86628 21.8334 9.44235 21.8334 9.00033C21.8334 8.5583 22.009 8.13438 22.3216 7.82181C22.6341 7.50925 23.0581 7.33366 23.5001 7.33366ZM16.5001 9.33366C18.2682 9.33366 19.9639 10.036 21.2141 11.2863C22.4644 12.5365 23.1667 14.2322 23.1667 16.0003C23.1667 17.7684 22.4644 19.4641 21.2141 20.7144C19.9639 21.9646 18.2682 22.667 16.5001 22.667C14.732 22.667 13.0363 21.9646 11.786 20.7144C10.5358 19.4641 9.83342 17.7684 9.83342 16.0003C9.83342 14.2322 10.5358 12.5365 11.786 11.2863C13.0363 10.036 14.732 9.33366 16.5001 9.33366ZM16.5001 12.0003C15.4392 12.0003 14.4218 12.4218 13.6717 13.1719C12.9215 13.922 12.5001 14.9395 12.5001 16.0003C12.5001 17.0612 12.9215 18.0786 13.6717 18.8288C14.4218 19.5789 15.4392 20.0003 16.5001 20.0003C17.5609 20.0003 18.5784 19.5789 19.3285 18.8288C20.0787 18.0786 20.5001 17.0612 20.5001 16.0003C20.5001 14.9395 20.0787 13.922 19.3285 13.1719C18.5784 12.4218 17.5609 12.0003 16.5001 12.0003Z" fill="#67B0C7"/>
</svg>
