<svg width="33" height="32" viewBox="0 0 33 32" fill="none" xmlns="http://www.w3.org/2000/svg">
<path d="M30.4468 7.99967C29.4201 8.46634 28.3135 8.77301 27.1668 8.91967C28.3401 8.21301 29.2468 7.09301 29.6735 5.74634C28.5668 6.41301 27.3401 6.87967 26.0468 7.14634C24.9935 5.99967 23.5135 5.33301 21.8335 5.33301C18.7001 5.33301 16.1401 7.89301 16.1401 11.053C16.1401 11.5063 16.1935 11.9463 16.2868 12.3597C11.5401 12.1197 7.31347 9.83967 4.50013 6.38634C4.0068 7.22634 3.7268 8.21301 3.7268 9.25301C3.7268 11.2397 4.7268 12.9997 6.27347 13.9997C5.3268 13.9997 4.4468 13.733 3.67347 13.333V13.373C3.67347 16.1463 5.6468 18.4663 8.26013 18.9863C7.4211 19.216 6.54026 19.2479 5.6868 19.0797C6.04894 20.2163 6.75818 21.2109 7.71482 21.9236C8.67146 22.6363 9.8274 23.0313 11.0201 23.053C8.99831 24.6536 6.49213 25.5188 3.91347 25.5063C3.46013 25.5063 3.0068 25.4797 2.55347 25.4263C5.0868 27.053 8.10013 27.9997 11.3268 27.9997C21.8335 27.9997 27.6068 19.2797 27.6068 11.7197C27.6068 11.4663 27.6068 11.2263 27.5935 10.973C28.7135 10.173 29.6735 9.15967 30.4468 7.99967Z" fill="#67B0C7"/>
</svg>
