<svg width="33" height="32" viewBox="0 0 33 32" fill="none" xmlns="http://www.w3.org/2000/svg">
<path d="M13.8334 20.0003L20.7534 16.0003L13.8334 12.0003V20.0003ZM29.2467 9.56033C29.4201 10.187 29.5401 11.027 29.6201 12.0937C29.7134 13.1603 29.7534 14.0803 29.7534 14.8803L29.8334 16.0003C29.8334 18.9203 29.6201 21.067 29.2467 22.4403C28.9134 23.6403 28.1401 24.4137 26.9401 24.747C26.3134 24.9203 25.1667 25.0403 23.4067 25.1203C21.6734 25.2137 20.0867 25.2537 18.6201 25.2537L16.5001 25.3337C10.9134 25.3337 7.43341 25.1203 6.06008 24.747C4.86008 24.4137 4.08675 23.6403 3.75341 22.4403C3.58008 21.8137 3.46008 20.9737 3.38008 19.907C3.28675 18.8403 3.24675 17.9203 3.24675 17.1203L3.16675 16.0003C3.16675 13.0803 3.38008 10.9337 3.75341 9.56033C4.08675 8.36033 4.86008 7.58699 6.06008 7.25366C6.68675 7.08033 7.83342 6.96033 9.59342 6.88033C11.3267 6.78699 12.9134 6.74699 14.3801 6.74699L16.5001 6.66699C22.0867 6.66699 25.5667 6.88033 26.9401 7.25366C28.1401 7.58699 28.9134 8.36033 29.2467 9.56033Z" fill="#67B0C7"/>
</svg>
